<svg width="19" height="18" viewBox="0 0 19 18" fill="none" xmlns="http://www.w3.org/2000/svg">
<path d="M16.1259 5.95547C16.0215 5.85047 15.8974 5.76721 15.7606 5.71048C15.6239 5.65376 15.4773 5.62471 15.3292 5.625H13.0792V5.0625C13.0792 4.01821 12.6644 3.01669 11.926 2.27827C11.1875 1.53984 10.186 1.125 9.14172 1.125C8.09743 1.125 7.09592 1.53984 6.35749 2.27827C5.61907 3.01669 5.20422 4.01821 5.20422 5.0625V5.625H2.95422C2.65586 5.625 2.36971 5.74353 2.15873 5.9545C1.94775 6.16548 1.82922 6.45163 1.82922 6.75V14.3438C1.82922 15.7148 2.98938 16.875 4.36047 16.875H13.923C14.5862 16.8752 15.2232 16.6159 15.6977 16.1525C15.9365 15.9247 16.1266 15.6509 16.2566 15.3476C16.3867 15.0442 16.4539 14.7177 16.4542 14.3877V6.75C16.4547 6.60244 16.4259 6.45626 16.3695 6.31989C16.3132 6.18352 16.2304 6.05966 16.1259 5.95547ZM11.3917 11.8125H9.70422V13.5C9.70422 13.6492 9.64496 13.7923 9.53947 13.8977C9.43398 14.0032 9.29091 14.0625 9.14172 14.0625C8.99254 14.0625 8.84947 14.0032 8.74398 13.8977C8.63849 13.7923 8.57922 13.6492 8.57922 13.5V11.8125H6.89172C6.74254 11.8125 6.59947 11.7532 6.49398 11.6477C6.38849 11.5423 6.32922 11.3992 6.32922 11.25C6.32922 11.1008 6.38849 10.9577 6.49398 10.8523C6.59947 10.7468 6.74254 10.6875 6.89172 10.6875H8.57922V9C8.57922 8.85082 8.63849 8.70774 8.74398 8.60225C8.84947 8.49676 8.99254 8.4375 9.14172 8.4375C9.29091 8.4375 9.43398 8.49676 9.53947 8.60225C9.64496 8.70774 9.70422 8.85082 9.70422 9V10.6875H11.3917C11.5409 10.6875 11.684 10.7468 11.7895 10.8523C11.895 10.9577 11.9542 11.1008 11.9542 11.25C11.9542 11.3992 11.895 11.5423 11.7895 11.6477C11.684 11.7532 11.5409 11.8125 11.3917 11.8125ZM11.9542 5.625H6.32922V5.0625C6.32922 4.31658 6.62554 3.60121 7.15299 3.07376C7.68043 2.54632 8.3958 2.25 9.14172 2.25C9.88764 2.25 10.603 2.54632 11.1305 3.07376C11.6579 3.60121 11.9542 4.31658 11.9542 5.0625V5.625Z" fill="white"/>
</svg>
