<svg width="244" height="56" viewBox="0 0 244 56" fill="none" xmlns="http://www.w3.org/2000/svg">
<path d="M27.1244 38.5C26.9665 38.5006 26.8125 38.4514 26.6842 38.3594L20.6556 33.9888L14.627 38.3594C14.4982 38.4528 14.3431 38.5028 14.184 38.5023C14.0248 38.5017 13.87 38.4505 13.7419 38.3562C13.6138 38.2618 13.519 38.1292 13.4713 37.9774C13.4235 37.8256 13.4252 37.6626 13.4762 37.5119L15.8275 30.5477L9.73375 26.3688C9.60175 26.2783 9.50213 26.1481 9.44944 25.997C9.39674 25.846 9.39374 25.682 9.44086 25.5291C9.48799 25.3762 9.58277 25.2424 9.71137 25.1472C9.83996 25.052 9.99563 25.0004 10.1556 25H17.6734L19.9422 18.018C19.9911 17.8672 20.0864 17.7359 20.2146 17.6427C20.3428 17.5495 20.4972 17.4993 20.6556 17.4993C20.8141 17.4993 20.9685 17.5495 21.0966 17.6427C21.2248 17.7359 21.3202 17.8672 21.3691 18.018L23.6378 25.0024H31.1556C31.3158 25.0023 31.4718 25.0535 31.6008 25.1485C31.7298 25.2435 31.8249 25.3773 31.8724 25.5303C31.9198 25.6833 31.917 25.8475 31.8643 25.9988C31.8117 26.1501 31.712 26.2806 31.5798 26.3711L25.4837 30.5477L27.8336 37.51C27.8717 37.6227 27.8824 37.7429 27.8648 37.8606C27.8473 37.9782 27.802 38.0901 27.7327 38.1868C27.6634 38.2835 27.5721 38.3624 27.4663 38.4168C27.3606 38.4713 27.2433 38.4998 27.1244 38.5Z" fill="#12805D"/>
<path d="M59.1244 38.5C58.9665 38.5006 58.8125 38.4514 58.6842 38.3594L52.6556 33.9888L46.627 38.3594C46.4982 38.4528 46.3431 38.5028 46.184 38.5023C46.0248 38.5017 45.87 38.4505 45.7419 38.3562C45.6138 38.2618 45.519 38.1292 45.4713 37.9774C45.4235 37.8256 45.4252 37.6626 45.4762 37.5119L47.8275 30.5477L41.7337 26.3688C41.6018 26.2783 41.5021 26.1481 41.4494 25.997C41.3967 25.846 41.3937 25.682 41.4409 25.5291C41.488 25.3762 41.5828 25.2424 41.7114 25.1472C41.84 25.052 41.9956 25.0004 42.1556 25H49.6734L51.9422 18.018C51.9911 17.8672 52.0864 17.7359 52.2146 17.6427C52.3428 17.5495 52.4972 17.4993 52.6556 17.4993C52.8141 17.4993 52.9685 17.5495 53.0966 17.6427C53.2248 17.7359 53.3202 17.8672 53.3691 18.018L55.6378 25.0024H63.1556C63.3158 25.0023 63.4718 25.0535 63.6008 25.1485C63.7298 25.2435 63.8249 25.3773 63.8724 25.5303C63.9198 25.6833 63.917 25.8475 63.8643 25.9988C63.8117 26.1501 63.712 26.2806 63.5798 26.3711L57.4837 30.5477L59.8336 37.51C59.8717 37.6227 59.8824 37.7429 59.8648 37.8606C59.8473 37.9782 59.802 38.0901 59.7327 38.1868C59.6634 38.2835 59.5721 38.3624 59.4663 38.4168C59.3606 38.4713 59.2433 38.4998 59.1244 38.5Z" fill="#12805D"/>
<path d="M91.1244 38.5C90.9665 38.5006 90.8125 38.4514 90.6842 38.3594L84.6556 33.9888L78.627 38.3594C78.4982 38.4528 78.3431 38.5028 78.184 38.5023C78.0248 38.5017 77.87 38.4505 77.7419 38.3562C77.6138 38.2618 77.519 38.1292 77.4713 37.9774C77.4235 37.8256 77.4252 37.6626 77.4762 37.5119L79.8275 30.5477L73.7337 26.3688C73.6018 26.2783 73.5021 26.1481 73.4494 25.997C73.3967 25.846 73.3937 25.682 73.4409 25.5291C73.488 25.3762 73.5828 25.2424 73.7114 25.1472C73.84 25.052 73.9956 25.0004 74.1556 25H81.6734L83.9422 18.018C83.9911 17.8672 84.0864 17.7359 84.2146 17.6427C84.3428 17.5495 84.4972 17.4993 84.6556 17.4993C84.8141 17.4993 84.9685 17.5495 85.0966 17.6427C85.2248 17.7359 85.3202 17.8672 85.3691 18.018L87.6378 25.0024H95.1556C95.3158 25.0023 95.4718 25.0535 95.6008 25.1485C95.7298 25.2435 95.8249 25.3773 95.8724 25.5303C95.9198 25.6833 95.917 25.8475 95.8643 25.9988C95.8117 26.1501 95.712 26.2806 95.5798 26.3711L89.4837 30.5477L91.8336 37.51C91.8717 37.6227 91.8824 37.7429 91.8648 37.8606C91.8473 37.9782 91.802 38.0901 91.7327 38.1868C91.6634 38.2835 91.5721 38.3624 91.4663 38.4168C91.3606 38.4713 91.2433 38.4998 91.1244 38.5Z" fill="#12805D"/>
<path d="M123.124 38.5C122.967 38.5006 122.812 38.4514 122.684 38.3594L116.656 33.9888L110.627 38.3594C110.498 38.4528 110.343 38.5028 110.184 38.5023C110.025 38.5017 109.87 38.4505 109.742 38.3562C109.614 38.2618 109.519 38.1292 109.471 37.9774C109.424 37.8256 109.425 37.6626 109.476 37.5119L111.827 30.5477L105.734 26.3688C105.602 26.2783 105.502 26.1481 105.449 25.997C105.397 25.846 105.394 25.682 105.441 25.5291C105.488 25.3762 105.583 25.2424 105.711 25.1472C105.84 25.052 105.996 25.0004 106.156 25H113.673L115.942 18.018C115.991 17.8672 116.086 17.7359 116.215 17.6427C116.343 17.5495 116.497 17.4993 116.656 17.4993C116.814 17.4993 116.968 17.5495 117.097 17.6427C117.225 17.7359 117.32 17.8672 117.369 18.018L119.638 25.0024H127.156C127.316 25.0023 127.472 25.0535 127.601 25.1485C127.73 25.2435 127.825 25.3773 127.872 25.5303C127.92 25.6833 127.917 25.8475 127.864 25.9988C127.812 26.1501 127.712 26.2806 127.58 26.3711L121.484 30.5477L123.834 37.51C123.872 37.6227 123.882 37.7429 123.865 37.8606C123.847 37.9782 123.802 38.0901 123.733 38.1868C123.663 38.2835 123.572 38.3624 123.466 38.4168C123.361 38.4713 123.243 38.4998 123.124 38.5Z" fill="#12805D"/>
<g clip-path="url(#clip0_7_718)">
<path d="M159.156 25.75H151.093L148.656 18.25L146.218 25.75H138.156L144.718 30.25L142.187 37.75L148.656 33.0625L155.124 37.75L152.593 30.25L159.156 25.75Z" stroke="#12805D" stroke-width="2" stroke-linejoin="round"/>
<path d="M148.656 18.25V33.0625L142.187 37.75L144.718 30.25L138.156 25.75H146.218L148.656 18.25Z" fill="#12805D"/>
</g>
<path d="M191.956 35V31.38H185.056L192.496 21H193.876V29.76H195.676V31.38H193.876V35H191.956ZM187.856 30.3L187.516 29.76H191.956V23.5L192.296 24.06L187.856 30.3ZM196.525 35V32.88H198.685V35H196.525ZM204.205 35.28C203.465 35.28 202.755 35.1833 202.075 34.99C201.395 34.7967 200.805 34.54 200.305 34.22L200.765 32.46C201.259 32.7267 201.772 32.9567 202.305 33.15C202.839 33.3433 203.439 33.44 204.105 33.44C204.999 33.44 205.722 33.19 206.275 32.69C206.829 32.1833 207.105 31.5067 207.105 30.66C207.105 29.7 206.805 28.97 206.205 28.47C205.605 27.97 204.825 27.72 203.865 27.72C203.359 27.72 202.879 27.7567 202.425 27.83C201.979 27.9033 201.519 28 201.045 28.12L201.905 21H208.505L208.425 22.8H203.465L202.945 27.18L202.525 26.36C202.825 26.3 203.142 26.2533 203.475 26.22C203.809 26.18 204.145 26.16 204.485 26.16C205.479 26.16 206.325 26.3567 207.025 26.75C207.725 27.1367 208.259 27.67 208.625 28.35C208.999 29.03 209.185 29.8 209.185 30.66C209.185 31.6067 208.965 32.4267 208.525 33.12C208.092 33.8067 207.499 34.34 206.745 34.72C205.999 35.0933 205.152 35.28 204.205 35.28ZM213.598 36.7L218.958 21H220.858L215.498 36.7H213.598ZM228.875 35.28C228.135 35.28 227.425 35.1833 226.745 34.99C226.065 34.7967 225.475 34.54 224.975 34.22L225.435 32.46C225.928 32.7267 226.442 32.9567 226.975 33.15C227.508 33.3433 228.108 33.44 228.775 33.44C229.668 33.44 230.392 33.19 230.945 32.69C231.498 32.1833 231.775 31.5067 231.775 30.66C231.775 29.7 231.475 28.97 230.875 28.47C230.275 27.97 229.495 27.72 228.535 27.72C228.028 27.72 227.548 27.7567 227.095 27.83C226.648 27.9033 226.188 28 225.715 28.12L226.575 21H233.175L233.095 22.8H228.135L227.615 27.18L227.195 26.36C227.495 26.3 227.812 26.2533 228.145 26.22C228.478 26.18 228.815 26.16 229.155 26.16C230.148 26.16 230.995 26.3567 231.695 26.75C232.395 27.1367 232.928 27.67 233.295 28.35C233.668 29.03 233.855 29.8 233.855 30.66C233.855 31.6067 233.635 32.4267 233.195 33.12C232.762 33.8067 232.168 34.34 231.415 34.72C230.668 35.0933 229.822 35.28 228.875 35.28Z" fill="#12805D"/>
<defs>
<clipPath id="clip0_7_718">
<rect width="24" height="24" fill="white" transform="translate(136.656 16)"/>
</clipPath>
</defs>
</svg>
