<svg width="24" height="25" viewBox="0 0 24 25" fill="none" xmlns="http://www.w3.org/2000/svg">
<path d="M21.3117 8.64979C21.1727 8.50977 21.0073 8.39873 20.825 8.32309C20.6428 8.24746 20.4473 8.20873 20.25 8.20917H17.25V7.45917C17.25 6.06678 16.6969 4.73142 15.7123 3.74686C14.7277 2.76229 13.3924 2.20917 12 2.20917C10.6076 2.20917 9.27226 2.76229 8.28769 3.74686C7.30312 4.73142 6.75 6.06678 6.75 7.45917V8.20917H3.75C3.35218 8.20917 2.97064 8.3672 2.68934 8.64851C2.40804 8.92981 2.25 9.31134 2.25 9.70917V19.8342C2.25 21.6623 3.79688 23.2092 5.625 23.2092H18.375C19.2593 23.2094 20.1086 22.8637 20.7413 22.2459C21.0596 21.9421 21.3132 21.577 21.4865 21.1726C21.6599 20.7682 21.7495 20.3328 21.75 19.8928V9.70917C21.7506 9.51238 21.7122 9.31743 21.637 9.13558C21.5617 8.95374 21.4512 8.78863 21.3117 8.64979V8.64979ZM8.25 7.45917C8.25 6.46461 8.64509 5.51078 9.34835 4.80752C10.0516 4.10426 11.0054 3.70917 12 3.70917C12.9946 3.70917 13.9484 4.10426 14.6517 4.80752C15.3549 5.51078 15.75 6.46461 15.75 7.45917V8.20917H8.25V7.45917ZM17.25 11.9592C17.25 13.3516 16.6969 14.6869 15.7123 15.6715C14.7277 16.656 13.3924 17.2092 12 17.2092C10.6076 17.2092 9.27226 16.656 8.28769 15.6715C7.30312 14.6869 6.75 13.3516 6.75 11.9592V11.2092C6.75 11.0103 6.82902 10.8195 6.96967 10.6788C7.11032 10.5382 7.30109 10.4592 7.5 10.4592C7.69891 10.4592 7.88968 10.5382 8.03033 10.6788C8.17098 10.8195 8.25 11.0103 8.25 11.2092V11.9592C8.25 12.9537 8.64509 13.9076 9.34835 14.6108C10.0516 15.3141 11.0054 15.7092 12 15.7092C12.9946 15.7092 13.9484 15.3141 14.6517 14.6108C15.3549 13.9076 15.75 12.9537 15.75 11.9592V11.2092C15.75 11.0103 15.829 10.8195 15.9697 10.6788C16.1103 10.5382 16.3011 10.4592 16.5 10.4592C16.6989 10.4592 16.8897 10.5382 17.0303 10.6788C17.171 10.8195 17.25 11.0103 17.25 11.2092V11.9592Z" fill="#1A1F16"/>
</svg>
